<svg xmlns="http://www.w3.org/2000/svg" width="19.198" height="15" viewBox="0 0 19.198 15">
  <path id="Icon_awesome-exchange-alt" data-name="Icon awesome-exchange-alt" d="M0,8.136v-.6a.9.9,0,0,1,.9-.9H14.4v-1.8A.9.9,0,0,1,15.935,4.2l3,3a.9.9,0,0,1,0,1.273l-3,3a.9.9,0,0,1-1.536-.636v-1.8H.9A.9.9,0,0,1,0,8.136Zm18.3,5.7H4.8v-1.8A.9.9,0,0,0,3.263,11.4l-3,3a.9.9,0,0,0,0,1.273l3,3A.9.9,0,0,0,4.8,18.035v-1.8H18.3a.9.9,0,0,0,.9-.9v-.6A.9.9,0,0,0,18.3,13.836Z" transform="translate(0 -3.936)" fill="#629509"/>
</svg>
