<svg xmlns="http://www.w3.org/2000/svg" width="52" height="52" viewBox="0 0 52 52">
  <g id="Group_203" data-name="Group 203" transform="translate(-614 -662)">
    <circle id="Ellipse_41" data-name="Ellipse 41" cx="26" cy="26" r="26" transform="translate(614 662)" fill="#629509"/>
    <path id="Icon_ionic-logo-bitcoin" data-name="Icon ionic-logo-bitcoin" d="M27.03,18.19a3.865,3.865,0,0,0-1.812-1.941A6.329,6.329,0,0,0,23.58,15.6a4.012,4.012,0,0,0,1.051-.709,3.635,3.635,0,0,0,1.006-1.5,4.972,4.972,0,0,0,.226-1.818,5.408,5.408,0,0,0-.851-2.889,5.317,5.317,0,0,0-2.425-1.741,9.105,9.105,0,0,0-2.934-.574V2.25H17.074V6.377H15.01V2.25H12.367V6.377H6.75v3.1h1.8a2.91,2.91,0,0,1,1.135.148.853.853,0,0,1,.419.387,3.1,3.1,0,0,1,.123,1.128V22.3a3.106,3.106,0,0,1-.123,1.122c-.084.168-.129.316-.329.406s-.206.084-.761.084h-1.7l-.561,3.1h5.61v4.127H15V27.012h2.063v4.127h2.579V26.986a12.609,12.609,0,0,0,3.83-.664,6.29,6.29,0,0,0,2.882-2.031,6.288,6.288,0,0,0,1.019-3.3A7.265,7.265,0,0,0,27.03,18.19ZM15,9.859h2.063v4.772H15ZM15,23.53v-5.8h2.063v5.8Zm4.643-13.419a2.259,2.259,0,0,1,.89.819,2.29,2.29,0,0,1,.419,1.38,2.134,2.134,0,0,1-.484,1.322,2.074,2.074,0,0,1-.825.716ZM21.5,22.15a3.912,3.912,0,0,1-1.425.89,3.614,3.614,0,0,1-.432.123V17.823a2.627,2.627,0,0,1,.729.219,2.9,2.9,0,0,1,1.277.851,2.826,2.826,0,0,1,.516,1.593A2.04,2.04,0,0,1,21.5,22.15Z" transform="translate(622.775 671.209)" fill="#fff"/>
  </g>
</svg>
