<svg xmlns="http://www.w3.org/2000/svg" width="45" height="30" viewBox="0 0 45 30">
  <path id="Icon_metro-mastercard" data-name="Icon metro-mastercard" d="M15.676,26.012h-.254q-.918,0-.918.625,0,.43.391.43a.653.653,0,0,0,.547-.293A1.356,1.356,0,0,0,15.676,26.012Zm7.715-.7H24.6V25.25a.3.3,0,0,0,.01-.127q-.01-.049-.02-.137a.549.549,0,0,0-.039-.156.406.406,0,0,0-.088-.127.479.479,0,0,0-.146-.1.557.557,0,0,0-.225-.039q-.547,0-.7.742Zm10.547.7H33.7q-.938,0-.938.625,0,.43.391.43a.653.653,0,0,0,.547-.293A1.356,1.356,0,0,0,33.938,26.012Zm6.23-.508q0-.8-.586-.8a.693.693,0,0,0-.605.391,1.912,1.912,0,0,0-.234,1q0,.82.547.82a.728.728,0,0,0,.635-.391A1.892,1.892,0,0,0,40.168,25.5ZM11.946,22.75h1.7l-.859,5.117H11.692l.625-3.926L10.93,27.867h-.762l-.078-3.906-.664,3.906H8.391L9.25,22.75h1.582l.039,3.184Zm4.941,2.09q0,.117-.078.82-.313,1.973-.332,2.207h-.918l.02-.43a1.343,1.343,0,0,1-1.133.508.943.943,0,0,1-.732-.313,1.175,1.175,0,0,1-.283-.82,1.448,1.448,0,0,1,.508-1.182,2.177,2.177,0,0,1,1.426-.42,4.212,4.212,0,0,1,.449.02.548.548,0,0,1,.01-.107q.01-.049.02-.088a.269.269,0,0,0,.01-.059q0-.391-.7-.391a3.63,3.63,0,0,0-1.152.2q0-.078.137-.938a4.785,4.785,0,0,1,1.309-.215q1.445,0,1.445,1.211Zm3.047-1.133-.156.957a5.95,5.95,0,0,0-.8-.059q-.527,0-.527.332a.3.3,0,0,0,.088.234,1.766,1.766,0,0,0,.42.215,1.227,1.227,0,0,1,.781,1.172q0,1.406-1.7,1.387a4.732,4.732,0,0,1-1.133-.117q0-.039.137-.957a3.81,3.81,0,0,0,1,.156q.625,0,.625-.371a.3.3,0,0,0-.088-.225,1.745,1.745,0,0,0-.42-.244,1.241,1.241,0,0,1-.84-1.152q0-1.406,1.641-1.406A5.1,5.1,0,0,1,19.934,23.707Zm1.719,0H22.2l-.137,1.016H21.5q-.039.332-.127.791t-.137.752a3.466,3.466,0,0,0-.049.352q0,.313.371.313a1.284,1.284,0,0,0,.313-.039l-.156.918a2.471,2.471,0,0,1-.781.137q-.84,0-.879-.918a8.443,8.443,0,0,1,.156-1.094q.059-.391.488-2.852H21.77Zm3.965,1.426a4.377,4.377,0,0,1-.137,1.016H23.313a.669.669,0,0,0,.2.645,1.121,1.121,0,0,0,.742.215,2.5,2.5,0,0,0,1.133-.273l-.176,1.055a4.324,4.324,0,0,1-1.113.156,1.64,1.64,0,0,1-1.855-1.855,2.8,2.8,0,0,1,.537-1.768,1.649,1.649,0,0,1,1.357-.693,1.445,1.445,0,0,1,1.084.41,1.5,1.5,0,0,1,.4,1.094Zm2.715-1.445A4.605,4.605,0,0,0,27.9,24.9q-.43-.039-.605.469a19.77,19.77,0,0,0-.488,2.5H25.715l.059-.273q.43-2.539.566-3.887h1l-.059.645a2.332,2.332,0,0,1,.5-.576.646.646,0,0,1,.557-.088Zm3.652-.8L31.809,24a2.23,2.23,0,0,0-.977-.273,1.185,1.185,0,0,0-1,.537,2.283,2.283,0,0,0-.391,1.377,1.44,1.44,0,0,0,.264.918.9.9,0,0,0,.752.332,2.208,2.208,0,0,0,.938-.254l-.2,1.152a3.6,3.6,0,0,1-.977.156,1.756,1.756,0,0,1-1.4-.6,2.372,2.372,0,0,1-.518-1.611,3.476,3.476,0,0,1,.693-2.236,2.183,2.183,0,0,1,1.787-.869,3.5,3.5,0,0,1,1.191.254Zm3.164,1.953a5.072,5.072,0,0,1-.078.82q-.254,1.543-.332,2.207h-.9l.02-.43a1.364,1.364,0,0,1-1.152.508.913.913,0,0,1-.723-.313,1.2,1.2,0,0,1-.273-.82,1.461,1.461,0,0,1,.5-1.182,2.137,2.137,0,0,1,1.416-.42,3.888,3.888,0,0,1,.449.02.928.928,0,0,0,.039-.254q0-.391-.7-.391a3.63,3.63,0,0,0-1.152.2q0-.078.156-.938a4.785,4.785,0,0,1,1.309-.215q1.426,0,1.426,1.211ZM37.9,23.687a3.764,3.764,0,0,0-.41,1.211.562.562,0,0,0-.615.449,22.019,22.019,0,0,0-.5,2.52H35.285l.059-.273q.371-2.031.566-3.887h1.016a3.962,3.962,0,0,1-.078.645,2.627,2.627,0,0,1,.518-.576.611.611,0,0,1,.537-.088Zm2.754-.938H41.75l-.84,5.117H39.875l.059-.371a1.4,1.4,0,0,1-1.016.449,1.159,1.159,0,0,1-.967-.469,1.994,1.994,0,0,1-.361-1.25,3.038,3.038,0,0,1,.537-1.8,1.534,1.534,0,0,1,1.26-.762,1.268,1.268,0,0,1,1.035.566Zm2.168,2.539a10.625,10.625,0,0,0-17.031-8.477,11.2,11.2,0,0,1,3.34,5.547h-.977a10.516,10.516,0,0,0-3.086-4.941,10.516,10.516,0,0,0-3.086,4.941h-.977a11.2,11.2,0,0,1,3.34-5.547A10.631,10.631,0,0,0,8.733,19.957,10.633,10.633,0,0,0,12.6,34.488a10.667,10.667,0,0,0,11.748-.723,11.233,11.233,0,0,1-3.223-5.156H22.1A10.428,10.428,0,0,0,25.07,33.16a10.428,10.428,0,0,0,2.969-4.551h.977a11.233,11.233,0,0,1-3.223,5.156,10.607,10.607,0,0,0,17.031-8.477Zm4.746-12.5v25a2.535,2.535,0,0,1-2.5,2.5h-40a2.4,2.4,0,0,1-1.758-.742,2.4,2.4,0,0,1-.742-1.758v-25a2.4,2.4,0,0,1,.742-1.758,2.4,2.4,0,0,1,1.758-.742h40a2.535,2.535,0,0,1,2.5,2.5Z" transform="translate(-2.571 -10.289)" fill="#da6200"/>
</svg>
