<svg xmlns="http://www.w3.org/2000/svg" width="172.79" height="157.548" viewBox="0 0 172.79 157.548">
  <g id="undraw_online_wishes_dlmr" transform="translate(-406.246 -117.42)">
    <path id="Path_26" data-name="Path 26" d="M54.2,27.1c0,14.967-12.133,38.853-27.1,38.853S0,42.066,0,27.1a27.1,27.1,0,0,1,54.2,0Z" transform="translate(525.504 152.722) rotate(9)" fill="#81c113"/>
    <path id="Path_27" data-name="Path 27" d="M3.553,0C.147,1.173-.668,5.817.5,9.223s3.652,6.231,4.9,9.61A28.8,28.8,0,0,1,6.625,24.07c.713,4.238,1.428,8.551.879,12.814a36.432,36.432,0,0,1-3.987,11.5C-.023,55.44,21.876.514,16.882,6.628" transform="translate(539.284 222.655) rotate(9)" fill="none" stroke="#2f2e41" stroke-width="2"/>
    <path id="Path_28" data-name="Path 28" d="M1048.224,499.081a4.489,4.489,0,0,0-5.224,0v-5.224h5.224Z" transform="translate(-502.199 -274.276)" fill="#81c113"/>
    <path id="Path_29" data-name="Path 29" d="M0,.021A5.746,5.746,0,0,0,5.233,0" transform="translate(541.018 221.565) rotate(9)" fill="none" stroke="#2f2e41" stroke-width="2"/>
    <ellipse id="Ellipse_35" data-name="Ellipse 35" cx="5.714" cy="6.856" rx="5.714" ry="6.856" transform="translate(556.373 166.537) rotate(9)" fill="#fff" opacity="0.4"/>
    <path id="Path_30" data-name="Path 30" d="M66,313.956c0,14.967,12.133,38.853,27.1,38.853s27.1-23.887,27.1-38.853a27.1,27.1,0,1,0-54.2,0Z" transform="translate(341.507 -134.834)" fill="#81c113"/>
    <path id="Path_31" data-name="Path 31" d="M137.374,491.809c3.406,1.173,4.221,5.817,3.049,9.223s-3.652,6.231-4.9,9.61a28.8,28.8,0,0,0-1.221,5.237c-.713,4.238-1.428,8.551-.879,12.814a36.432,36.432,0,0,0,3.987,11.5c3.54,7.056-6.881-30.428-1.887-24.314" transform="translate(296.229 -272.869)" fill="none" stroke="#2f2e41" stroke-width="2"/>
    <path id="Path_32" data-name="Path 32" d="M141,486.081a4.489,4.489,0,0,1,5.224,0v-5.224H141Z" transform="translate(290.994 -265.493)" fill="#81c113"/>
    <path id="Path_33" data-name="Path 33" d="M146.163,488.474a5.747,5.747,0,0,1-5.233-.021" transform="translate(291.042 -270.609)" fill="none" stroke="#2f2e41" stroke-width="2"/>
    <ellipse id="Ellipse_36" data-name="Ellipse 36" cx="5.714" cy="6.856" rx="5.714" ry="6.856" transform="translate(417.628 160.839)" fill="#fff" opacity="0.4"/>
    <circle id="Ellipse_37" data-name="Ellipse 37" cx="1.261" cy="1.261" r="1.261" transform="translate(406.246 117.42)" fill="#f2f2f2"/>
    <path id="Path_44" data-name="Path 44" d="M912.761,338.809c-3.406,1.173-4.221,5.817-3.049,9.223s3.652,6.231,4.9,9.61a28.8,28.8,0,0,1,1.221,5.237c.713,4.238,1.428,8.551.879,12.814a36.431,36.431,0,0,1-3.987,11.5c-3.54,7.056,8.981-35.665,3.987-29.551" transform="translate(-424.704 -137.1)" fill="none" stroke="#2f2e41" stroke-width="2"/>
    <path id="Path_45" data-name="Path 45" d="M905.2,160.956c0,14.967-12.133,38.853-27.1,38.853S851,175.923,851,160.956a27.1,27.1,0,0,1,54.2,0Z" transform="translate(-391.046 0.936)" fill="#629509"/>
    <path id="Path_46" data-name="Path 46" d="M931.224,333.081a4.489,4.489,0,0,0-5.224,0v-5.224h5.224Z" transform="translate(-449.291 -153.333)" fill="none"/>
    <ellipse id="Ellipse_40" data-name="Ellipse 40" cx="5.641" cy="6.85" rx="5.641" ry="6.85" transform="translate(492.276 144.098)" fill="#fff" opacity="0.4"/>
    <path id="Path_55" data-name="Path 55" d="M548.024,291.365a10.045,10.045,0,0,1-5.666.2,2.277,2.277,0,0,1-.994-.461,2.575,2.575,0,0,1-.615-1.218,9.625,9.625,0,0,1-.543-2.915,3.254,3.254,0,0,1,1.212-2.6,2.863,2.863,0,0,0,.461-.346,1.91,1.91,0,0,0,.356-.724c.554-1.652,1.628-3.4,3.35-3.661,1.589-.244,3.035.866,4.26,1.908l2.687,2.287a4.24,4.24,0,0,1,7.906-.108,15.039,15.039,0,0,1,5.978-4.1,1.84,1.84,0,0,1,1.571-.062,1.8,1.8,0,0,1,.625.839,12.915,12.915,0,0,1,1.165,5.1.892.892,0,0,1,1.036.357,2.352,2.352,0,0,1,.345,1.123,15.9,15.9,0,0,1,.107,1.85,2.792,2.792,0,0,1-.486,1.851,3.076,3.076,0,0,1-2.34.727.938.938,0,0,1-.241,1.39,2.711,2.711,0,0,1-1.571.305c-2.091-.02-4.315-.08-6.054-1.241-.687-.458-1.262-1.069-1.95-1.524-1.687-1.117-3.806-1.17-5.76-1.078C551.1,289.338,549.7,290.8,548.024,291.365Z" transform="translate(-67.709 -83.383)" fill="#da6200"/>
  </g>
</svg>
